# xmcd
#
# Track frame offsets: 
#        150
#        10104
#        48835
#        81099
#        96986
#        123513
#        149417
#        185997
#        211511
#        232949
#        259299
#
# Disc length: 3682 seconds
#
# Revision: 1
# Processed by: cddbd v1.5.2PL0 Copyright (c) Steve Scherf et al.
# Submitted via: ExactAudioCopy v0.99pb4
#
DISCID=930e600b
DTITLE=Third World Love - New Blues
DYEAR=2008
DGENRE=Jazz
TTITLE0=Joy Of The Life Intro
TTITLE1=Joy Of The Life
TTITLE2=Homeland
TTITLE3=Little Echo
TTITLE4=La Camerona
TTITLE5=Gigi At Amelie
TTITLE6=Nature's dance
TTITLE7=Hamina
TTITLE8=Beauty Of Dead
TTITLE9=New Blues (Aint No Thing...)
TTITLE10=So
EXTD=YEAR: 2007
EXTT0=
EXTT1=
EXTT2=
EXTT3=
EXTT4=
EXTT5=
EXTT6=
EXTT7=
EXTT8=
EXTT9=
EXTT10=
PLAYORDER=
